<svg xmlns="http://www.w3.org/2000/svg" viewBox="0 0 314 68" fill="none">
  <style>
    .ring{stroke-dasharray:100;stroke-dashoffset:0;animation:d 720ms cubic-bezier(.32,.72,0,1) both}
    .ring.i{animation-delay:120ms}
    .nib{transform-box:fill-box;transform-origin:center;animation:r 460ms cubic-bezier(.32,.72,0,1) 360ms both}
    .nst{transform-box:fill-box;transform-origin:center;animation:r 460ms cubic-bezier(.32,.72,0,1) 500ms both}
    .sd{transform-box:fill-box;transform-origin:center;animation:s 560ms cubic-bezier(.32,.72,0,1) 700ms both}
    .wm{animation:f 600ms cubic-bezier(.32,.72,0,1) 760ms both}
    @keyframes d{from{stroke-dashoffset:100}to{stroke-dashoffset:0}}
    @keyframes r{from{opacity:0;transform:scale(.92)}to{opacity:1;transform:scale(1)}}
    @keyframes s{0%{opacity:0;transform:translateY(-6px) scale(.6)}70%{opacity:1;transform:translateY(0) scale(1)}84%{transform:translateY(0) scaleY(.86)}100%{transform:translateY(0) scaleY(1)}}
    @keyframes f{from{opacity:0;transform:translateX(-6px)}to{opacity:1;transform:translateX(0)}}
    @media (prefers-reduced-motion:reduce){.ring,.nib,.nst,.sd,.wm{animation:none}}
  </style>
  <g transform="translate(0 6) scale(0.875)">
    <circle class="ring" cx="32" cy="32" r="27.5" fill="none" stroke="#211a10" stroke-width="1.3" pathLength="100"/>
    <circle class="ring i" cx="32" cy="32" r="23.8" fill="none" stroke="#211a10" stroke-width="0.8" opacity="0.32" pathLength="100"/>
    <path class="nib" fill="#211a10" fill-rule="evenodd" d="M32 13.5C28 17.5 25.2 22.5 25.2 27.5 25.2 32.5 28 36.5 32 40 36 36.5 38.8 32.5 38.8 27.5 38.8 22.5 36 17.5 32 13.5ZM32 21.4A1.6 1.6 0 1 0 32.01 21.4ZM31.3 23.5 32.7 23.5 32.4 37.5 31.6 37.5Z"/>
    <g class="nst" fill="none" stroke="#211a10" stroke-linecap="round">
      <path d="M19.5 41.5Q32 53 44.5 41.5" stroke-width="1.7"/>
      <path d="M23 40.5Q32 48.5 41 40.5" stroke-width="1.3"/>
      <path d="M19.5 41.5Q18.4 38.5 19.1 36.5" stroke-width="1.5"/>
      <path d="M44.5 41.5Q45.6 38.5 44.9 36.5" stroke-width="1.5"/>
    </g>
    <circle class="sd" cx="32" cy="43.4" r="3.3" fill="#c2502a"/>
  </g>
  <path class="wm" transform="translate(78 44.5)" d="M10.89 0L7.11 0L0.63-21L4.05-21L9-4.20L13.95-21L17.37-21L10.89 0M33 0.36Q30.45 0.36 28.59-0.96Q26.73-2.28 25.74-4.71Q24.75-7.14 24.75-10.50Q24.75-13.86 25.74-16.29Q26.73-18.72 28.59-20.04Q30.45-21.36 33-21.36Q35.58-21.36 37.42-20.04Q39.27-18.72 40.26-16.29Q41.25-13.86 41.25-10.50Q41.25-7.14 40.26-4.71Q39.27-2.28 37.42-0.96Q35.58 0.36 33 0.36M33-2.64Q35.25-2.64 36.63-4.67Q38.01-6.69 38.01-10.50Q38.01-14.31 36.63-16.34Q35.25-18.36 33-18.36Q30.72-18.36 29.36-16.34Q27.99-14.31 27.99-10.50Q27.99-6.69 29.36-4.67Q30.72-2.64 33-2.64M57.06 0.36Q54.42 0.36 52.58-0.99Q50.73-2.34 49.76-4.79Q48.78-7.23 48.78-10.47Q48.78-13.74 49.76-16.18Q50.73-18.63 52.59-20Q54.45-21.36 57.06-21.36Q60.45-21.36 62.46-19.52Q64.47-17.67 64.80-14.52L61.29-14.52Q61.02-16.17 59.95-17.27Q58.89-18.36 57.03-18.36Q54.66-18.36 53.34-16.26Q52.02-14.16 52.02-10.47Q52.02-6.81 53.34-4.72Q54.66-2.64 57.03-2.64Q58.95-2.64 59.97-3.64Q60.99-4.65 61.29-6.30L64.80-6.30Q64.32-3.21 62.37-1.42Q60.42 0.36 57.06 0.36M76.29 0L72.84 0L79.11-21L82.89-21L89.16 0L85.71 0L84.30-5.04L77.70-5.04L76.29 0M81.09-16.50L80.91-16.50L78.42-7.59L83.58-7.59L81.09-16.50M105.42 0L97.68 0L97.68-21L105.18-21Q108.45-21 110.13-19.50Q111.81-18 111.81-15.63Q111.81-13.80 110.85-12.66Q109.89-11.52 108.63-11.01L108.63-10.80Q110.13-10.26 111.21-9.04Q112.29-7.83 112.29-5.85Q112.29-4.23 111.50-2.90Q110.70-1.56 109.17-0.78Q107.64 0 105.42 0M100.86-18.18L100.86-12.24L104.79-12.24Q106.62-12.24 107.58-12.97Q108.54-13.71 108.54-15.21Q108.54-18.18 104.73-18.18L100.86-18.18M100.86-9.54L100.86-2.94L105-2.94Q106.95-2.94 108-3.78Q109.05-4.62 109.05-6.24Q109.05-7.83 107.94-8.69Q106.83-9.54 104.94-9.54L100.86-9.54M148.56 0L145.53 0L145.53-21L148.65-21L157.44-5.61L157.44-21L160.47-21L160.47 0L157.35 0L148.56-15.39L148.56 0M183.81 0L170.40 0L170.40-21L183.81-21L183.81-18.15L173.58-18.15L173.58-12.03L182.91-12.03L182.91-9.21L173.58-9.21L173.58-2.85L183.81-2.85L183.81 0M201.21 0.36Q198.99 0.36 197.32-0.45Q195.66-1.26 194.72-2.76Q193.77-4.26 193.74-6.33L197.10-6.33Q197.13-4.74 198.19-3.61Q199.26-2.49 201.18-2.49Q202.95-2.49 203.94-3.31Q204.93-4.14 204.93-5.46Q204.93-6.57 204.34-7.30Q203.76-8.04 202.53-8.62Q201.30-9.21 199.35-9.84Q196.74-10.68 195.51-12.16Q194.28-13.65 194.28-15.81Q194.28-18.30 196.08-19.83Q197.88-21.36 201.03-21.36Q204.09-21.36 205.95-19.79Q207.81-18.21 207.87-15.42L204.48-15.42Q204.48-16.17 204.06-16.87Q203.64-17.58 202.86-18.04Q202.08-18.51 200.94-18.51Q199.53-18.54 198.57-17.84Q197.61-17.13 197.61-15.93Q197.61-14.46 198.78-13.63Q199.95-12.81 202.59-11.94Q204.24-11.40 205.51-10.63Q206.79-9.87 207.53-8.69Q208.26-7.50 208.26-5.67Q208.26-3.99 207.42-2.62Q206.58-1.26 205-0.45Q203.43 0.36 201.21 0.36M226.59 0L223.41 0L223.41-18.15L217.77-18.15L217.77-21L232.23-21L232.23-18.15L226.59-18.15" fill="#211a10"/>
</svg>